<svg id="logo" xmlns="http://www.w3.org/2000/svg" viewBox="0 0 125 125"><defs><style>.cls-1{fill:#26225b;}</style></defs><path class="cls-1" d="M46,98.75A10.38,10.38,0,0,1,35.69,88.41V35.91H23A10.37,10.37,0,0,0,12.7,46.25v54.39A10.37,10.37,0,0,0,23,111H61.71a10.38,10.38,0,0,0,10.35-10.34V98.75Z"/><path class="cls-1" d="M77.41,92.55V61.37A10.28,10.28,0,0,1,87.75,51.22H112.3V46.73H82.7A10.28,10.28,0,0,0,72.35,56.88V91.14a9.36,9.36,0,0,0,.11,1.41Z"/><path class="cls-1" d="M109.29,45l-2.68-2.23a10.42,10.42,0,0,1-1.53,10.68L79.8,84a10.29,10.29,0,0,1-6,3.54v.21h-7.3A8.15,8.15,0,0,0,67.71,89l3.11,2.57a8.34,8.34,0,0,0,11.72-1.1L110.4,56.77A8.38,8.38,0,0,0,109.29,45Z"/><path class="cls-1" d="M102,14H51.79A10.38,10.38,0,0,0,41.44,24.36V83.11A10.38,10.38,0,0,0,51.79,93.45H76.65V88.34h.76v-.65H58.56A10.37,10.37,0,0,1,48.22,77.35V30.88A10.37,10.37,0,0,1,58.56,20.54H96.25a10.37,10.37,0,0,1,10.34,10.34V51.45h5.71V24.36A10.37,10.37,0,0,0,102,14Z"/></svg>